<?xml version="1.0" standalone="no"?>
<!DOCTYPE svg PUBLIC "-//W3C//DTD SVG 20010904//EN"
 "http://www.w3.org/TR/2001/REC-SVG-20010904/DTD/svg10.dtd">
<svg version="1.0" xmlns="http://www.w3.org/2000/svg"
 width="600.000000pt" height="600.000000pt" viewBox="0 0 600.000000 600.000000"
 preserveAspectRatio="xMidYMid meet">
<metadata>
Created by potrace 1.14, written by Peter Selinger 2001-2017
</metadata>
<g transform="translate(0.000000,600.000000) scale(0.100000,-0.100000)"
fill="#000000" stroke="none">
<path d="M2887 5148 c-188 -14 -388 -103 -592 -263 -313 -245 -614 -713 -792
-1230 -40 -115 -99 -339 -109 -411 -3 -27 -8 -52 -11 -56 -2 -4 -6 -31 -9 -60
-3 -29 -9 -80 -14 -113 -5 -33 -7 -186 -5 -340 3 -270 11 -349 49 -520 66
-299 213 -605 371 -774 110 -118 187 -187 280 -250 275 -189 584 -282 938
-283 207 -1 362 23 527 83 47 17 90 32 95 33 26 7 131 58 197 97 163 94 353
259 454 394 21 28 42 52 46 53 4 2 8 7 8 12 0 4 16 32 36 61 62 92 182 359
199 440 2 9 12 47 23 85 19 64 25 91 37 154 3 14 7 36 10 50 20 102 29 623 12
745 -5 33 -10 75 -13 94 -2 19 -8 58 -14 86 -6 28 -13 64 -16 80 -3 15 -12 55
-20 89 -8 34 -17 70 -19 82 -14 65 -83 277 -128 389 -209 535 -530 950 -877
1136 -223 120 -406 157 -663 137z m239 -1482 c213 -21 444 -174 562 -374 53
-90 81 -171 118 -336 6 -27 6 -391 0 -433 -6 -46 -52 -218 -75 -286 -30 -88
-152 -317 -206 -389 -119 -157 -279 -276 -412 -308 -153 -36 -313 -3 -452 93
-66 45 -169 151 -224 230 -96 139 -202 394 -234 566 -2 14 -6 28 -8 31 -17 27
-27 380 -13 465 24 151 83 312 151 410 120 174 353 316 547 332 30 3 56 6 57
7 4 3 124 -2 189 -8z"/>
</g>
</svg>
