<?xml version="1.0" standalone="no"?>
<!DOCTYPE svg PUBLIC "-//W3C//DTD SVG 20010904//EN"
 "http://www.w3.org/TR/2001/REC-SVG-20010904/DTD/svg10.dtd">
<svg version="1.0" xmlns="http://www.w3.org/2000/svg"
 width="600.000000pt" height="600.000000pt" viewBox="0 0 600.000000 600.000000"
 preserveAspectRatio="xMidYMid meet">
<metadata>
Created by potrace 1.14, written by Peter Selinger 2001-2017
</metadata>
<g transform="translate(0.000000,600.000000) scale(0.100000,-0.100000)"
fill="#000000" stroke="none">
<path d="M0 3000 l0 -3000 3000 0 3000 0 0 3000 0 3000 -3000 0 -3000 0 0
-3000z m5510 0 l0 -2510 -2510 0 -2510 0 0 2510 0 2510 2510 0 2510 0 0 -2510z"/>
<path d="M2870 5150 c-25 -5 -61 -11 -80 -14 -188 -34 -443 -182 -629 -367
-324 -322 -623 -881 -736 -1379 -26 -111 -45 -203 -49 -237 -24 -178 -27 -233
-27 -423 0 -194 11 -361 26 -420 2 -8 7 -35 10 -60 19 -141 87 -360 161 -519
40 -85 146 -257 199 -320 36 -45 184 -189 223 -218 20 -15 39 -30 42 -33 15
-17 160 -105 228 -140 125 -63 315 -127 427 -145 11 -2 38 -7 60 -10 138 -24
385 -27 500 -7 33 6 74 13 90 15 100 15 296 82 417 143 310 156 555 403 710
716 82 165 160 414 183 583 3 28 8 64 11 80 14 99 20 480 10 570 -2 17 -7 57
-10 90 -8 77 -24 174 -41 255 -3 14 -7 36 -10 49 -2 13 -14 60 -26 105 -11 45
-22 88 -24 96 -6 29 -67 216 -85 260 -10 25 -30 76 -45 114 -30 78 -112 247
-170 351 -142 256 -355 507 -547 643 -141 100 -333 186 -459 207 -24 4 -53 9
-64 12 -40 8 -251 10 -295 3z m305 -1489 c324 -74 551 -308 616 -636 6 -27 13
-63 17 -80 4 -16 6 -115 6 -220 0 -161 -4 -204 -23 -280 -27 -110 -53 -195
-77 -255 -26 -61 -134 -274 -144 -280 -4 -3 -19 -24 -34 -48 -65 -104 -228
-247 -336 -295 -99 -44 -233 -55 -345 -28 -60 15 -153 61 -217 108 -48 35
-188 181 -188 196 0 4 -9 18 -20 30 -31 32 -124 219 -163 327 -31 85 -64 210
-82 310 -14 76 -17 333 -6 408 49 314 186 527 426 662 60 34 162 70 235 85 76
14 264 12 335 -4z"/>
</g>
</svg>
